# xmcd
#
# Track frame offsets:
#	150
#	19620
#	38320
#
# Disc length: 798 seconds
#
# Revision: 0
# Processed by: cddbd v1.5.1PL0 Copyright (c) Steve Scherf et al.
# Submitted via: dBpowerAMP V4.0
#
DISCID=11031c03
DTITLE=Tevin Campbell - Tell Me What You Want Me To Do (single)
DYEAR=1992
DGENRE=Blues
TTITLE0=Tell Me What You Want Me To Do
TTITLE1=Just Ask Me To (Featuring Chubb Rock)
TTITLE2=Tomorrow (A Better You, Better Me)
EXTD=
EXTT0=
EXTT1=
EXTT2=
PLAYORDER=
